<mxfile host="app.diagrams.net" modified="2023-12-05T16:21:29.757Z" agent="Mozilla/5.0 (Windows NT 10.0; Win64; x64) AppleWebKit/537.36 (KHTML, like Gecko) Chrome/119.0.0.0 Safari/537.36 Edg/119.0.0.0" etag="KRelVXD54Z7GcjUfGAJg" version="22.1.5" type="github">
  <diagram name="Страница — 1" id="ejxRM6sy8iXU6pytJV8V">
    <mxGraphModel dx="983" dy="518" grid="1" gridSize="10" guides="1" tooltips="1" connect="1" arrows="1" fold="1" page="1" pageScale="1" pageWidth="827" pageHeight="1169" math="0" shadow="0">
      <root>
        <mxCell id="0" />
        <mxCell id="1" parent="0" />
        <mxCell id="-Ux7-sMBjBibabKgl1pU-4" style="edgeStyle=orthogonalEdgeStyle;rounded=0;orthogonalLoop=1;jettySize=auto;html=1;exitX=1;exitY=0.5;exitDx=0;exitDy=0;entryX=0;entryY=0.5;entryDx=0;entryDy=0;" edge="1" parent="1" source="-Ux7-sMBjBibabKgl1pU-1" target="-Ux7-sMBjBibabKgl1pU-3">
          <mxGeometry relative="1" as="geometry" />
        </mxCell>
        <mxCell id="-Ux7-sMBjBibabKgl1pU-1" value="Пользователь&lt;br&gt;client" style="rounded=0;whiteSpace=wrap;html=1;" vertex="1" parent="1">
          <mxGeometry x="120" y="190" width="120" height="60" as="geometry" />
        </mxCell>
        <mxCell id="-Ux7-sMBjBibabKgl1pU-20" style="edgeStyle=orthogonalEdgeStyle;rounded=0;orthogonalLoop=1;jettySize=auto;html=1;exitX=1;exitY=0.5;exitDx=0;exitDy=0;entryX=0;entryY=0.5;entryDx=0;entryDy=0;" edge="1" parent="1" source="-Ux7-sMBjBibabKgl1pU-2" target="-Ux7-sMBjBibabKgl1pU-6">
          <mxGeometry relative="1" as="geometry" />
        </mxCell>
        <mxCell id="-Ux7-sMBjBibabKgl1pU-2" value="Приложиние&lt;br&gt;client" style="rounded=0;whiteSpace=wrap;html=1;" vertex="1" parent="1">
          <mxGeometry x="120" y="290" width="120" height="60" as="geometry" />
        </mxCell>
        <mxCell id="-Ux7-sMBjBibabKgl1pU-7" value="" style="edgeStyle=orthogonalEdgeStyle;rounded=0;orthogonalLoop=1;jettySize=auto;html=1;" edge="1" parent="1" source="-Ux7-sMBjBibabKgl1pU-3" target="-Ux7-sMBjBibabKgl1pU-6">
          <mxGeometry relative="1" as="geometry" />
        </mxCell>
        <mxCell id="-Ux7-sMBjBibabKgl1pU-3" value="Фронт" style="rounded=0;whiteSpace=wrap;html=1;" vertex="1" parent="1">
          <mxGeometry x="290" y="190" width="120" height="60" as="geometry" />
        </mxCell>
        <mxCell id="-Ux7-sMBjBibabKgl1pU-11" value="" style="edgeStyle=orthogonalEdgeStyle;rounded=0;orthogonalLoop=1;jettySize=auto;html=1;" edge="1" parent="1" source="-Ux7-sMBjBibabKgl1pU-6" target="-Ux7-sMBjBibabKgl1pU-10">
          <mxGeometry relative="1" as="geometry" />
        </mxCell>
        <mxCell id="-Ux7-sMBjBibabKgl1pU-14" style="edgeStyle=orthogonalEdgeStyle;rounded=0;orthogonalLoop=1;jettySize=auto;html=1;exitX=0.5;exitY=1;exitDx=0;exitDy=0;entryX=0.5;entryY=0;entryDx=0;entryDy=0;" edge="1" parent="1" source="-Ux7-sMBjBibabKgl1pU-6" target="-Ux7-sMBjBibabKgl1pU-12">
          <mxGeometry relative="1" as="geometry" />
        </mxCell>
        <mxCell id="-Ux7-sMBjBibabKgl1pU-16" style="edgeStyle=orthogonalEdgeStyle;rounded=0;orthogonalLoop=1;jettySize=auto;html=1;exitX=0.5;exitY=1;exitDx=0;exitDy=0;" edge="1" parent="1" source="-Ux7-sMBjBibabKgl1pU-6" target="-Ux7-sMBjBibabKgl1pU-15">
          <mxGeometry relative="1" as="geometry" />
        </mxCell>
        <mxCell id="-Ux7-sMBjBibabKgl1pU-6" value="Gateway" style="rounded=0;whiteSpace=wrap;html=1;" vertex="1" parent="1">
          <mxGeometry x="290" y="290" width="120" height="60" as="geometry" />
        </mxCell>
        <mxCell id="-Ux7-sMBjBibabKgl1pU-19" style="edgeStyle=orthogonalEdgeStyle;rounded=0;orthogonalLoop=1;jettySize=auto;html=1;exitX=1;exitY=0.5;exitDx=0;exitDy=0;" edge="1" parent="1" source="-Ux7-sMBjBibabKgl1pU-8" target="-Ux7-sMBjBibabKgl1pU-17">
          <mxGeometry relative="1" as="geometry" />
        </mxCell>
        <mxCell id="-Ux7-sMBjBibabKgl1pU-8" value="Access matrix" style="rounded=0;whiteSpace=wrap;html=1;" vertex="1" parent="1">
          <mxGeometry x="310" y="540" width="120" height="60" as="geometry" />
        </mxCell>
        <mxCell id="-Ux7-sMBjBibabKgl1pU-13" value="" style="edgeStyle=orthogonalEdgeStyle;rounded=0;orthogonalLoop=1;jettySize=auto;html=1;" edge="1" parent="1" source="-Ux7-sMBjBibabKgl1pU-10" target="-Ux7-sMBjBibabKgl1pU-12">
          <mxGeometry relative="1" as="geometry" />
        </mxCell>
        <mxCell id="-Ux7-sMBjBibabKgl1pU-10" value="Мониторинг занятости" style="rounded=0;whiteSpace=wrap;html=1;" vertex="1" parent="1">
          <mxGeometry x="320" y="430" width="120" height="60" as="geometry" />
        </mxCell>
        <mxCell id="-Ux7-sMBjBibabKgl1pU-18" style="edgeStyle=orthogonalEdgeStyle;rounded=0;orthogonalLoop=1;jettySize=auto;html=1;exitX=1;exitY=0.5;exitDx=0;exitDy=0;" edge="1" parent="1" source="-Ux7-sMBjBibabKgl1pU-12" target="-Ux7-sMBjBibabKgl1pU-17">
          <mxGeometry relative="1" as="geometry" />
        </mxCell>
        <mxCell id="-Ux7-sMBjBibabKgl1pU-12" value="NSI" style="rounded=0;whiteSpace=wrap;html=1;" vertex="1" parent="1">
          <mxGeometry x="460" y="430" width="120" height="60" as="geometry" />
        </mxCell>
        <mxCell id="-Ux7-sMBjBibabKgl1pU-21" style="edgeStyle=orthogonalEdgeStyle;rounded=0;orthogonalLoop=1;jettySize=auto;html=1;exitX=0.5;exitY=1;exitDx=0;exitDy=0;entryX=0.5;entryY=1;entryDx=0;entryDy=0;" edge="1" parent="1" source="-Ux7-sMBjBibabKgl1pU-15" target="-Ux7-sMBjBibabKgl1pU-12">
          <mxGeometry relative="1" as="geometry" />
        </mxCell>
        <mxCell id="-Ux7-sMBjBibabKgl1pU-15" value="Контроль бронирования" style="rounded=0;whiteSpace=wrap;html=1;" vertex="1" parent="1">
          <mxGeometry x="180" y="430" width="120" height="60" as="geometry" />
        </mxCell>
        <mxCell id="-Ux7-sMBjBibabKgl1pU-17" value="БД" style="rounded=0;whiteSpace=wrap;html=1;" vertex="1" parent="1">
          <mxGeometry x="630" y="430" width="120" height="60" as="geometry" />
        </mxCell>
        <mxCell id="-Ux7-sMBjBibabKgl1pU-25" style="edgeStyle=orthogonalEdgeStyle;rounded=0;orthogonalLoop=1;jettySize=auto;html=1;exitX=0.5;exitY=1;exitDx=0;exitDy=0;entryX=0;entryY=0.5;entryDx=0;entryDy=0;" edge="1" parent="1" source="-Ux7-sMBjBibabKgl1pU-23" target="-Ux7-sMBjBibabKgl1pU-8">
          <mxGeometry relative="1" as="geometry" />
        </mxCell>
        <mxCell id="-Ux7-sMBjBibabKgl1pU-23" value="Управление пользователями" style="rounded=0;whiteSpace=wrap;html=1;" vertex="1" parent="1">
          <mxGeometry x="40" y="430" width="120" height="60" as="geometry" />
        </mxCell>
        <mxCell id="-Ux7-sMBjBibabKgl1pU-24" style="edgeStyle=orthogonalEdgeStyle;rounded=0;orthogonalLoop=1;jettySize=auto;html=1;exitX=0.5;exitY=1;exitDx=0;exitDy=0;entryX=0.5;entryY=0;entryDx=0;entryDy=0;" edge="1" parent="1" source="-Ux7-sMBjBibabKgl1pU-6" target="-Ux7-sMBjBibabKgl1pU-23">
          <mxGeometry relative="1" as="geometry" />
        </mxCell>
      </root>
    </mxGraphModel>
  </diagram>
</mxfile>
